<svg width="531" height="213" viewBox="0 0 531 213" fill="none" xmlns="http://www.w3.org/2000/svg">
<path d="M41.5 1H0.5V211.5H41.5V1Z" fill="#080000"/>
<path d="M193 1H152V211.5H193V1Z" fill="#080000"/>
<path d="M349 1H309V211.5H349V1Z" fill="#080000"/>
<path d="M440 55.5L408.5 1H362.312L416 96L440 55.5Z" fill="#080000"/>
<path d="M358 212L478.5 0.5H524.5L404 212H358Z" fill="#080000"/>
<path d="M484.544 211.5L447.5 147.337L470.228 107.971L530 211.5H484.544Z" fill="#080000"/>
<path d="M256.5 143C257.7 127 246.667 120.667 241 119.5H197.5V78.5H241.5C269 70.5 256 42.5 241.5 42.5H197.5V1.5L241.5 1.50001C300 -1.5 317.5 86 271.5 100.5C292.3 104.1 296.167 133.833 295.5 143V212H256.5V143Z" fill="#080000"/>
<path d="M46.5 119.5V78.5L90 79C111 69 103 42.5 88.5 42.5H46.5V2H90C148 2 159.5 84.5 113.5 99C157.5 112.5 158 201.5 90.5 211.5H46.5V170.5L90.5 171C111.5 161 104.5 119.5 90 119.5H46.5Z" fill="#080000"/>
<path d="M360.5 1H362.312M362.312 1H408.5L440 55.5L416 96L362.312 1ZM470.5 107.5L470.228 107.971M470.228 107.971L447.5 147.337L484.544 211.5H530L470.228 107.971ZM0.5 1H41.5V211.5H0.5V1ZM152 1H193V211.5H152V1ZM309 1H349V211.5H309V1ZM478.5 0.5L358 212H404L524.5 0.5H478.5ZM241 119.5C246.667 120.667 257.7 127 256.5 143V212H295.5V143C296.167 133.833 292.3 104.1 271.5 100.5C317.5 86 300 -1.5 241.5 1.50001L197.5 1.5V42.5H241.5C256 42.5 269 70.5 241.5 78.5H197.5V119.5H241ZM46.5 78.5V119.5H90C104.5 119.5 111.5 161 90.5 171L46.5 170.5V211.5H90.5C158 201.5 157.5 112.5 113.5 99C159.5 84.5 148 2 90 2H46.5V42.5H88.5C103 42.5 111 69 90 79L46.5 78.5Z" stroke="black"/>
</svg>
